# xmcd
# 
# Track frame offsets:
#     150
#     22107
#     43221
#     70049
# 
# Disc length: 1225
# 
# Revision: 0
# Processed by: cddbd v1.5.2PL0 Copyright (c) Steve Scherf et al.
# Submitted via: fre:ac v1.0.17
# 
DISCID=3204c704
DTITLE=林部智史 - あいたい aitai ～ special version～
DYEAR=2016
DGENRE=
TTITLE0=あいたい
TTITLE1=糸
TTITLE2=木蘭の涙
TTITLE3=あいたい (instrumental)
EXTD=
EXTT0=
EXTT1=
EXTT2=
EXTT3=
PLAYORDER=
